<svg width="14" height="14" viewBox="0 0 14 14" fill="none" xmlns="http://www.w3.org/2000/svg">
<path fill-rule="evenodd" clip-rule="evenodd" d="M13.7462 4.21042C13.7268 3.50529 13.6213 3.02122 13.4671 2.59725C13.3051 2.15989 13.0864 1.78513 12.7246 1.41317C12.3628 1.04122 11.9987 0.804346 11.5672 0.62989C11.1489 0.458315 10.6688 0.338652 9.96475 0.294568C9.25808 0.250438 9.03308 0.238562 7.23721 0.207215C5.43869 0.175822 5.21341 0.179838 4.50828 0.199325C3.80315 0.218812 3.31908 0.324295 2.89511 0.478519C2.4551 0.640411 2.08034 0.859084 1.70838 1.22088C1.33643 1.58268 1.09956 1.94684 0.925101 2.37833C0.756175 2.79666 0.633863 3.27675 0.589779 3.98077C0.545649 4.68744 0.533773 4.91245 0.502426 6.70831C0.471033 8.50683 0.475049 8.73212 0.494536 9.43725C0.514023 10.1424 0.619506 10.6264 0.77373 11.0504C0.935669 11.4878 1.15434 11.8625 1.51614 12.2345C1.87525 12.609 2.2421 12.8433 2.67358 13.0178C3.09187 13.1893 3.57201 13.309 4.27603 13.3531C4.9827 13.3972 5.2077 13.4091 7.00357 13.4404C8.80209 13.4718 9.02737 13.4678 9.7325 13.4483C10.4376 13.4289 10.9217 13.3234 11.3457 13.1691C11.783 13.0072 12.1578 12.7885 12.5297 12.4267C12.9017 12.0649 13.1386 11.7008 13.313 11.2693C13.4846 10.851 13.6043 10.3709 13.6484 9.66685C13.6925 8.96018 13.7044 8.73517 13.7357 6.9393C13.7671 5.14343 13.7657 4.91555 13.7462 4.21042ZM12.4626 9.59316C12.4222 10.239 12.3075 10.5893 12.2134 10.8182C12.0888 11.1234 11.9393 11.3433 11.7021 11.5724C11.4649 11.8014 11.2426 11.9379 10.9306 12.057C10.6959 12.143 10.3417 12.2455 9.69755 12.2634C9.00036 12.283 8.79097 12.2873 7.02159 12.2564C5.25221 12.2255 5.04309 12.2139 4.34702 12.17C3.70123 12.1296 3.35084 12.0148 3.12197 11.9207C2.81679 11.7962 2.59683 11.6466 2.36781 11.4094C2.13879 11.1723 2.00224 10.95 1.88316 10.6379C1.79717 10.4032 1.69472 10.0491 1.67681 9.40489C1.65719 8.70771 1.6529 8.49832 1.68378 6.72894C1.71466 4.95955 1.72626 4.75044 1.77021 4.05437C1.81063 3.40857 1.92537 3.05818 2.01946 2.82931C2.14401 2.52413 2.29358 2.30418 2.53074 2.07516C2.7679 1.84613 2.9902 1.70958 3.30228 1.5905C3.53694 1.50451 3.89113 1.40206 4.53529 1.38416C5.23247 1.36453 5.44186 1.36024 7.21124 1.39112C8.98063 1.42201 9.18974 1.43361 9.88581 1.47755C10.5316 1.51797 10.882 1.63272 11.1109 1.7268C11.416 1.85136 11.636 2.00093 11.865 2.23809C12.094 2.47525 12.2306 2.69755 12.3497 3.00963C12.4357 3.24429 12.5381 3.59847 12.556 4.24263C12.5756 4.93982 12.5799 5.14921 12.5491 6.91859C12.5189 8.64533 12.5046 8.88606 12.4656 9.54365L12.4626 9.59316ZM7.17581 3.42277C5.29518 3.38994 3.74819 4.88645 3.71541 6.76443C3.68259 8.64506 5.17909 10.192 7.05708 10.2248C8.93506 10.2576 10.4847 8.75849 10.5175 6.88316C10.5503 5.00253 9.05644 3.45559 7.17581 3.42277ZM7.07793 9.03022C5.85949 9.00896 4.88874 8.00372 4.91001 6.78528C4.93128 5.56685 5.93652 4.5961 7.15495 4.61737C8.37339 4.63863 9.34414 5.64387 9.32287 6.86231C9.3016 8.08075 8.29636 9.05149 7.07793 9.03022ZM11.5062 3.36583C11.4985 3.80469 11.1365 4.15425 10.6977 4.14659C10.2588 4.13893 9.90925 3.77695 9.91692 3.33809C9.92458 2.89923 10.2866 2.54967 10.7254 2.55733C11.1643 2.56499 11.5138 2.92697 11.5062 3.36583Z" fill="#121A0A"/>
</svg>
