<svg width="14" height="14" viewBox="0 0 14 14" fill="none" xmlns="http://www.w3.org/2000/svg">
<path d="M7.18402 0.655045C3.52983 0.591261 0.515678 3.5017 0.451889 7.15619C0.3881 10.8107 3.29884 13.8245 6.95303 13.8883C10.6072 13.9521 13.6214 11.0417 13.6852 7.38718C13.749 3.73269 10.8382 0.718829 7.18402 0.655045ZM10.2456 10.2497C10.1361 10.436 9.93876 10.5385 9.73726 10.5349C9.64302 10.5333 9.54618 10.508 9.45782 10.4568C8.63983 9.97926 7.74452 9.67984 6.79481 9.56689C5.84308 9.45471 4.90002 9.53502 3.99071 9.80796C3.68727 9.89904 3.36536 9.72665 3.2744 9.42271C3.18244 9.11825 3.35551 8.79746 3.65996 8.7059C4.72049 8.38736 5.82225 8.29197 6.93108 8.42424C8.03789 8.55648 9.08276 8.90565 10.0378 9.46304C10.3128 9.62248 10.4059 9.97489 10.2456 10.2497ZM11.0727 8.25375C10.967 8.44876 10.7646 8.55814 10.557 8.55452C10.4668 8.55295 10.3769 8.53072 10.2925 8.48462C9.28618 7.93796 8.19514 7.59129 7.04728 7.45453C5.89044 7.3157 4.74075 7.39903 3.6284 7.69891C3.32111 7.78039 3.00537 7.59999 2.92348 7.2928C2.84059 6.98609 3.02259 6.67037 3.32889 6.58756C4.58432 6.24916 5.88159 6.15638 7.18356 6.31148C8.47652 6.46602 9.7072 6.85654 10.8427 7.47364C11.1208 7.62541 11.225 7.97461 11.0727 8.25375ZM11.3886 6.58675C11.3024 6.58524 11.2155 6.56427 11.133 6.52192C9.9385 5.89997 8.64876 5.5031 7.29876 5.34225C5.94677 5.18006 4.59752 5.26361 3.28716 5.58912C2.97896 5.66517 2.66735 5.47772 2.5905 5.16901C2.51365 4.86071 2.70163 4.5484 3.01083 4.47186C4.45615 4.11281 5.94593 4.02178 7.43604 4.19962C8.92415 4.37652 10.3465 4.81462 11.6643 5.50079C11.9465 5.64751 12.0558 5.99529 11.9095 6.27694C11.8057 6.4774 11.6002 6.59044 11.3886 6.58675Z" fill="#121A0A"/>
</svg>
