<svg width="16" height="13" viewBox="0 0 16 13" fill="none" xmlns="http://www.w3.org/2000/svg">
<path d="M14.0785 3.72181C14.0822 3.85778 14.0799 3.98747 14.0775 4.12333C14.0116 8.24252 10.8705 12.9443 5.27789 12.8467C3.6284 12.8179 2.01753 12.3018 0.642865 11.3635C0.883127 11.3986 1.12371 11.4152 1.36451 11.4194C2.73106 11.4432 4.06967 10.9971 5.16245 10.1451C3.86256 10.0977 2.73396 9.20703 2.35884 7.92793C2.81475 8.02855 3.28463 8.01822 3.73237 7.89631C2.32263 7.58754 1.32756 6.29144 1.34752 4.80303C1.34774 4.79068 1.34795 4.77833 1.34817 4.76598C1.76536 5.01418 2.23857 5.15834 2.71996 5.1791C1.40549 4.2419 1.02191 2.41286 1.85349 1.00039C3.36657 2.97887 5.62155 4.19812 8.06341 4.37046C7.83545 3.28544 8.19241 2.15502 8.99439 1.40302C10.237 0.244817 12.1624 0.340198 13.2963 1.61401C13.979 1.49002 14.6397 1.2421 15.242 0.888148C15.0006 1.60669 14.5144 2.20977 13.8755 2.5878C14.4788 2.5242 15.0717 2.36776 15.6298 2.1304C15.2095 2.75316 14.6823 3.28758 14.0785 3.72181Z" fill="#121A0A"/>
</svg>
