<svg width="20" height="14" viewBox="0 0 20 14" fill="none" xmlns="http://www.w3.org/2000/svg">
<path fill-rule="evenodd" clip-rule="evenodd" d="M17.5068 0.699061C18.3126 0.931151 18.9398 1.5806 19.1436 2.39397C19.5225 3.88005 19.4532 6.96236 19.4532 6.96236C19.4532 6.96236 19.3996 10.0294 18.9846 11.5016C18.7525 12.3073 18.1031 12.9345 17.2897 13.1383C15.8039 13.5017 9.88783 13.3985 9.88783 13.3985C9.88783 13.3985 3.98735 13.2955 2.49983 12.8646C1.69407 12.6325 1.0669 11.9831 0.86307 11.1697C0.499401 9.69946 0.553207 6.61688 0.553207 6.61688C0.553207 6.61688 0.606742 3.54988 1.02177 2.07766C1.25386 1.2719 1.91916 0.62943 2.71696 0.425329C4.20276 0.0619314 10.1188 0.165197 10.1188 0.165197C10.1188 0.165197 16.0349 0.268462 17.5068 0.699061ZM13.0392 6.83484L8.0701 9.58245L8.16901 3.91549L13.0392 6.83484Z" fill="#121A0A"/>
</svg>
